<svg xmlns="http://www.w3.org/2000/svg" width="31" height="31" viewBox="0 0 31 31" fill="none">
  <path d="M15.5 29C22.9558 29 29 22.9558 29 15.5C29 8.04416 22.9558 2 15.5 2C8.04416 2 2 8.04416 2 15.5C2 22.9558 8.04416 29 15.5 29Z" fill="#E9F2EB"/>
  <path d="M15.5 29C22.9558 29 29 22.9558 29 15.5C29 8.04416 22.9558 2 15.5 2C8.04416 2 2 8.04416 2 15.5C2 22.9558 8.04416 29 15.5 29Z" stroke="#FFBDD5" stroke-opacity="0.75" stroke-width="4"/>
  <path d="M15.5 11.5C17.7091 11.5 19.5 13.2909 19.5 15.5C19.5 17.7091 17.7091 19.5 15.5 19.5C13.2909 19.5 11.5 17.7091 11.5 15.5C11.5 13.2909 13.2909 11.5 15.5 11.5Z" fill="#E9F2EB" stroke="#FFBDD5"/>
</svg>