<svg xmlns="http://www.w3.org/2000/svg" width="90" height="90" viewBox="0 0 127 120" fill="none">
  <path d="M63.5 117.8C97.4655 117.8 125 91.8773 125 59.9C125 27.9227 97.4655 2 63.5 2C29.5345 2 2 27.9227 2 59.9C2 91.8773 29.5345 117.8 63.5 117.8Z" fill="#FFF4CA"/>
  <path d="M63.5 117.8C97.4655 117.8 125 91.8773 125 59.9C125 27.9227 97.4655 2 63.5 2C29.5345 2 2 27.9227 2 59.9C2 91.8773 29.5345 117.8 63.5 117.8Z" stroke="#FACC15" stroke-width="4"/>
  <path d="M63.5 79.2C74.8218 79.2 84 70.5591 84 59.9C84 49.2409 74.8218 40.6 63.5 40.6C52.1782 40.6 43 49.2409 43 59.9C43 70.5591 52.1782 79.2 63.5 79.2Z" fill="#FA8966"/>
</svg>

