<svg xmlns="http://www.w3.org/2000/svg" width="27" height="26" viewBox="0 0 27 26" fill="none">
  <path d="M13.5 17.3333C15.364 17.3333 16.875 15.8782 16.875 14.0833C16.875 12.2883 15.364 10.8333 13.5 10.8333C11.636 10.8333 10.125 12.2883 10.125 14.0833C10.125 15.8782 11.636 17.3333 13.5 17.3333Z" stroke="#160111" stroke-width="3.75"/>
  <path opacity="0.5" d="M11 22.75H16C19.5112 22.75 21.2668 22.75 22.5279 21.9533C23.0737 21.6084 23.5425 21.1652 23.9074 20.6491C24.75 19.4568 24.75 17.7969 24.75 14.4772C24.75 11.1577 24.75 9.49781 23.9074 8.30548C23.5425 7.78932 23.0737 7.34613 22.5279 7.00124C21.7174 6.48931 20.703 6.30633 19.1497 6.24093C18.4085 6.24093 17.7704 5.7099 17.625 5.02272C17.4069 3.99196 16.4496 3.25 15.3379 3.25H11.6621C10.5503 3.25 9.59304 3.99196 9.375 5.02272C9.22964 5.7099 8.59146 6.24093 7.85025 6.24093C6.297 6.30633 5.28249 6.48931 4.47214 7.00124C3.92619 7.34613 3.45744 7.78932 3.09265 8.30548C2.25 9.49781 2.25 11.1577 2.25 14.4772C2.25 17.7969 2.25 19.4568 3.09265 20.6491C3.45744 21.1652 3.92619 21.6084 4.47214 21.9533C5.73327 22.75 7.48884 22.75 11 22.75Z" stroke="black" stroke-width="3.75"/>
  <path d="M21.375 10.8333H20.25" stroke="#160111" stroke-width="3.75" stroke-linecap="round"/>
</svg>