<svg xmlns="http://www.w3.org/2000/svg" width="20" height="20" viewBox="0 0 20 20" fill="none">
  <path fill-rule="evenodd" clip-rule="evenodd" d="M4.37484 8.37891V6.66675C4.37484 3.56015 6.89324 1.04175 9.99984 1.04175C13.1064 1.04175 15.6248 3.56015 15.6248 6.66675V8.37891C16.5538 8.44833 17.1588 8.62341 17.6009 9.06566C18.3332 9.79791 18.3332 10.9764 18.3332 13.3334C18.3332 15.6904 18.3332 16.8689 17.6009 17.6012C16.8687 18.3334 15.6902 18.3334 13.3332 18.3334H6.6665C4.30948 18.3334 3.13097 18.3334 2.39874 17.6012C1.6665 16.8689 1.6665 15.6904 1.6665 13.3334C1.6665 10.9764 1.6665 9.79791 2.39874 9.06566C2.84093 8.62341 3.44588 8.44833 4.37484 8.37891ZM5.62484 6.66675C5.62484 4.25051 7.5836 2.29175 9.99984 2.29175C12.4161 2.29175 14.3748 4.25051 14.3748 6.66675V8.33641C14.0557 8.33341 13.7094 8.33341 13.3332 8.33341H6.6665C6.29025 8.33341 5.94401 8.33341 5.62484 8.33641V6.66675ZM11.6665 13.3334C11.6665 14.2539 10.9203 15.0001 9.99984 15.0001C9.07934 15.0001 8.33317 14.2539 8.33317 13.3334C8.33317 12.4129 9.07934 11.6667 9.99984 11.6667C10.9203 11.6667 11.6665 12.4129 11.6665 13.3334Z" fill="#FAC907"/>
</svg>