<svg xmlns="http://www.w3.org/2000/svg" width="25" height="25" viewBox="0 0 25 25" fill="none">
  <g clip-path="url(#clip0_571_63)">
    <path d="M24.2684 14.3043C23.3173 13.3478 21.763 13.3478 20.8119 14.3043C19.8609 15.2554 19.8609 16.8097 20.8119 17.7609C21.2739 18.2228 21.888 18.4782 22.5402 18.4782C23.1923 18.4782 23.8065 18.2228 24.2684 17.7609C25.2249 16.8097 25.2249 15.2554 24.2684 14.3043ZM23.1186 16.6044C22.7889 16.9346 22.2812 16.924 21.9648 16.6081C21.6528 16.2961 21.6528 15.7691 21.9648 15.4569C22.2853 15.1352 22.7998 15.1401 23.1123 15.4537C23.4428 15.7831 23.4278 16.2972 23.1186 16.6044Z" fill="#F9A926"/>
    <path d="M16.2861 15.8262L15.7426 16.3697L9.46541 22.6414C8.99265 23.1197 8.36213 23.3588 7.73718 23.3588C7.11218 23.3588 6.48718 23.1197 6.00896 22.6414L4.28069 20.9131L2.55237 19.1849C1.59583 18.2283 1.59583 16.6794 2.55237 15.7229L9.3676 8.90771L12.8296 12.3697L16.2861 15.8262Z" fill="#FFC033"/>
    <path d="M18.0144 14.0925L16.2862 15.8262L12.8296 12.3697L9.36768 8.90773L11.0959 7.17946C11.4166 6.8588 11.9329 6.8588 12.2481 7.17946L15.1339 10.0599L18.0143 12.9403C18.3351 13.261 18.3351 13.7773 18.0144 14.0925Z" fill="#F67EAA"/>
    <path d="M6.59072 21.6956C6.25376 22.6956 5.32441 23.3696 4.27007 23.3696H2.4603C2.0146 23.3696 1.64507 23.7337 1.64507 24.1848C1.64507 24.6359 1.28096 25 0.829883 25C0.655908 25 0.492871 24.9456 0.356982 24.8369C0.150537 24.701 0.0146484 24.4565 0.0146484 24.1847C0.0146484 22.8369 1.11245 21.7391 2.4603 21.7391H4.27007C4.61787 21.7391 4.93311 21.5163 5.0418 21.1793C5.18311 20.7554 5.64502 20.5217 6.07437 20.6684C6.49829 20.8097 6.73198 21.2717 6.59072 21.6956Z" fill="#D7EBFF"/>
    <path d="M6.59067 21.6956C6.25371 22.6956 5.32437 23.3695 4.27002 23.3695H2.46025C2.01455 23.3695 1.64502 23.7336 1.64502 24.1847C1.64502 24.6359 1.28091 24.9999 0.829834 24.9999C0.655859 24.9999 0.492822 24.9456 0.356934 24.8369L3.45483 21.7391H4.27007C4.61787 21.7391 4.93311 21.5163 5.0418 21.1793C5.18311 20.7554 5.64502 20.5217 6.07437 20.6684C6.49824 20.8097 6.73193 21.2717 6.59067 21.6956Z" fill="#BDDEFF"/>
    <path d="M18.0144 14.0924L16.2861 15.8261L12.8296 12.3696L15.1339 10.0598L18.0143 12.9402C18.3351 13.2609 18.3351 13.7771 18.0144 14.0924Z" fill="#F65681"/>
    <path d="M16.2861 15.8262L9.46548 22.6414C8.99272 23.1196 8.36221 23.3587 7.73726 23.3587C7.11226 23.3587 6.48726 23.1196 6.00903 22.6414L4.28076 20.9131L12.2917 12.9077L12.8297 12.3696L16.2861 15.8262Z" fill="#F9A926"/>
    <path d="M16.862 9.14496C16.6535 9.14496 16.4449 9.06532 16.2857 8.90609C15.9673 8.58793 15.9673 8.07177 16.2857 7.75331L23.2028 0.835974C23.5212 0.517566 24.0371 0.517566 24.3556 0.835974C24.674 1.15414 24.674 1.6703 24.3556 1.98876L17.4385 8.90614C17.2792 9.06537 17.0706 9.14496 16.862 9.14496Z" fill="#FFC033"/>
    <path d="M23.9015 11.2948C23.737 11.2948 23.5714 11.2455 23.4276 11.1425C22.113 10.2022 20.4002 10.0661 18.9563 10.7885C18.5543 10.9889 18.0641 10.8264 17.8625 10.4239C17.6614 10.021 17.8245 9.53144 18.2271 9.33002C20.2126 8.33725 22.5691 8.5225 24.3765 9.81669C24.7427 10.0786 24.8271 10.5878 24.5649 10.9541C24.4057 11.1765 24.1553 11.2948 23.9015 11.2948Z" fill="#F65681"/>
    <path d="M15.1334 7.4159C15.0622 7.4159 14.9901 7.40663 14.9184 7.387C14.484 7.26834 14.228 6.82044 14.3463 6.38602C14.8068 4.69749 14.483 2.91576 13.4574 1.4974C13.1935 1.1325 13.2756 0.622739 13.6405 0.358969C14.0056 0.0951509 14.5151 0.177182 14.7789 0.542075C16.0946 2.36224 16.5101 4.64842 15.9194 6.81488C15.8204 7.17757 15.4919 7.4159 15.1334 7.4159Z" fill="#F67EAA"/>
    <path d="M18.7376 2.70664C19.1878 2.70664 19.5528 2.34165 19.5528 1.89141C19.5528 1.44116 19.1878 1.07617 18.7376 1.07617C18.2874 1.07617 17.9224 1.44116 17.9224 1.89141C17.9224 2.34165 18.2874 2.70664 18.7376 2.70664Z" fill="#4F9D90"/>
    <path d="M23.0853 7.59775C23.5355 7.59775 23.9005 7.23276 23.9005 6.78252C23.9005 6.33228 23.5355 5.96729 23.0853 5.96729C22.635 5.96729 22.27 6.33228 22.27 6.78252C22.27 7.23276 22.635 7.59775 23.0853 7.59775Z" fill="#43BFBF"/>
    <path d="M10.1885 15.011H8.55811V16.6414H10.1885V15.011Z" fill="#4F9D90"/>
    <path d="M16.2871 8.90684C16.4462 9.06538 16.6541 9.14487 16.8623 9.14487C17.0708 9.14487 17.2794 9.06523 17.4386 8.90601L24.3558 1.98862C24.6738 1.67056 24.6739 1.15542 24.3566 0.837158L16.2871 8.90684Z" fill="#F9A926"/>
    <path d="M10.1885 15.011V16.6414H8.55811L10.1885 15.011Z" fill="#43BFBF"/>
    <path d="M10.4095 0.717407C9.45842 -0.239136 7.90413 -0.239136 6.95305 0.717407C6.00198 1.66848 6.00198 3.22283 6.95305 4.17395C7.41497 4.63591 8.02913 4.89133 8.68128 4.89133C9.33337 4.89133 9.94763 4.63591 10.4095 4.17395C11.366 3.22283 11.366 1.66848 10.4095 0.717407ZM9.25974 3.0178C8.92869 3.34885 8.42078 3.33557 8.10593 3.02122C7.79387 2.70916 7.79387 2.18215 8.10593 1.87004C8.42644 1.54832 8.94094 1.5532 9.25339 1.86682C9.58528 2.19714 9.56751 2.71204 9.25974 3.0178Z" fill="#FFC033"/>
  </g>
  <defs>
    <clipPath id="clip0_571_63">
      <rect width="25" height="25" fill="white"/>
    </clipPath>
  </defs>
</svg>