<svg xmlns="http://www.w3.org/2000/svg" width="25" height="21" viewBox="0 0 25 21" fill="none">
  <path d="M7.88501 5.47803L17.7579 14.4158L16.5054 15.5166L6.63249 6.57883L7.88501 5.47803Z" fill="#FA8966"/>
  <path d="M17.9849 6.67188L8.01307 15.5219L6.77284 14.4101L16.7446 5.56005L17.9849 6.67188Z" fill="#FA8966"/>
  <path d="M12.5 0.00538527C9.28907 -0.0851602 6.16926 0.969149 3.82561 2.93681C1.48195 4.90447 0.106045 7.62463 0 10.5C0.106045 13.3754 1.48195 16.0955 3.82561 18.0632C6.16926 20.0309 9.28907 21.0852 12.5 20.9946C15.7109 21.0852 18.8307 20.0309 21.1744 18.0632C23.518 16.0955 24.894 13.3754 25 10.5C24.894 7.62463 23.518 4.90447 21.1744 2.93681C18.8307 0.969149 15.7109 -0.0851602 12.5 0.00538527ZM12.5 19.2455C9.80808 19.3326 7.1872 18.4614 5.21069 16.8225C3.23418 15.1835 2.06292 12.9103 1.95312 10.5C2.06292 8.08971 3.23418 5.81646 5.21069 4.17752C7.1872 2.53859 9.80808 1.66739 12.5 1.75449C15.1919 1.66739 17.8128 2.53859 19.7893 4.17752C21.7658 5.81646 22.9371 8.08971 23.0469 10.5C22.9371 12.9103 21.7658 15.1835 19.7893 16.8225C17.8128 18.4614 15.1919 19.3326 12.5 19.2455Z" fill="#FA8966"/>
</svg>