<svg xmlns="http://www.w3.org/2000/svg" width="28" height="34" viewBox="0 0 28 24" fill="none">
  <path fill-rule="evenodd" clip-rule="evenodd" d="M21.5684 11.1887C19.7983 11.1887 15.0205 11.1887 15.0205 11.1887V5.54299C15.0205 2.50818 18.0488 0.00317461 21.5908 0.00317461C25.1292 0.00157397 28.0002 2.46496 28.0002 5.50137C28.0002 8.53779 25.1067 11.1887 21.5684 11.1887Z" fill="#FAC907"/>
  <path fill-rule="evenodd" clip-rule="evenodd" d="M12.9892 11.2281C12.9892 11.2281 8.2486 11.2281 6.41121 11.2281C2.86916 11.2281 0 8.53782 0 5.4998C0 2.46499 2.86916 0 6.41121 0C9.9514 0.00160064 12.9892 2.46339 12.9892 5.4998V11.2281Z" fill="#FAC907"/>
  <path fill-rule="evenodd" clip-rule="evenodd" d="M13.123 18.5002C13.123 21.5366 9.86525 24 6.37366 24C2.88207 24 0.050293 21.5382 0.050293 18.5002C0.050293 15.4622 2.83534 12.8149 6.32693 12.8149C8.11384 12.8149 13.123 12.855 13.123 12.855V18.5002Z" fill="#FAC907"/>
  <path fill-rule="evenodd" clip-rule="evenodd" d="M21.5848 24.0001C18.0577 24.0001 15.0186 21.5223 15.0186 18.4843C15.0186 16.9749 15.0559 12.8093 15.0559 12.8093H21.5848C25.11 12.8093 27.9698 15.4622 27.9698 18.5003C27.9698 21.5367 25.11 24.0001 21.5848 24.0001Z" fill="#FAC907"/>
</svg>