<svg xmlns="http://www.w3.org/2000/svg" width="25" height="25" viewBox="0 0 25 25" fill="none">
  <g clip-path="url(#clip0_574_81)">
    <path d="M17.9285 15.3647H15.079C14.6286 15.3647 14.2637 14.9998 14.2637 14.5494C14.2637 14.0991 14.6286 13.7341 15.079 13.7341H17.9285C18.3788 13.7341 18.7438 14.0991 18.7438 14.5494C18.7438 14.9998 18.3788 15.3647 17.9285 15.3647Z" fill="#E65C64"/>
    <path d="M10.4671 10.7528C10.0168 10.7528 9.65186 10.3878 9.65186 9.9375V7.08799C9.65186 6.63765 10.0168 6.27271 10.4671 6.27271C10.9175 6.27271 11.2824 6.63765 11.2824 7.08799V9.9375C11.2824 10.3878 10.9175 10.7528 10.4671 10.7528Z" fill="#F26D76"/>
    <path d="M11.7678 0.717444C10.8166 -0.239148 9.26221 -0.239148 8.31104 0.717444C7.35986 1.66862 7.35986 3.22306 8.31104 4.17423C8.773 4.63624 9.38721 4.89166 10.0394 4.89166C10.6915 4.89166 11.3058 4.63619 11.7677 4.17423C12.7245 3.22311 12.7245 1.66862 11.7678 0.717444ZM10.618 3.01803C10.287 3.34908 9.779 3.3358 9.46411 3.02145C9.152 2.70934 9.152 2.18229 9.46411 1.87018C9.78462 1.5484 10.2992 1.55328 10.6117 1.86696C10.9436 2.19733 10.9258 2.71222 10.618 3.01803Z" fill="#FFC033"/>
    <path d="M20.8441 10.7531C21.2944 10.7531 21.6594 10.3881 21.6594 9.93784C21.6594 9.48757 21.2944 9.12256 20.8441 9.12256C20.3938 9.12256 20.0288 9.48757 20.0288 9.93784C20.0288 10.3881 20.3938 10.7531 20.8441 10.7531Z" fill="#4F9D90"/>
    <path d="M15.079 4.98799C15.5292 4.98799 15.8942 4.62297 15.8942 4.17271C15.8942 3.72244 15.5292 3.35742 15.079 3.35742C14.6287 3.35742 14.2637 3.72244 14.2637 4.17271C14.2637 4.62297 14.6287 4.98799 15.079 4.98799Z" fill="#4F9D90"/>
    <path d="M20.8441 19.9765C21.2944 19.9765 21.6594 19.6115 21.6594 19.1612C21.6594 18.711 21.2944 18.3459 20.8441 18.3459C20.3938 18.3459 20.0288 18.711 20.0288 19.1612C20.0288 19.6115 20.3938 19.9765 20.8441 19.9765Z" fill="#4F9D90"/>
    <path d="M5.85532 4.98799C6.30559 4.98799 6.67061 4.62297 6.67061 4.17271C6.67061 3.72244 6.30559 3.35742 5.85532 3.35742C5.40505 3.35742 5.04004 3.72244 5.04004 4.17271C5.04004 4.62297 5.40505 4.98799 5.85532 4.98799Z" fill="#4F9D90"/>
    <path d="M21.6595 2.54204C21.2092 2.54204 20.8442 2.1771 20.8442 1.72676V0.911475C20.8442 0.461133 21.2092 0.0961914 21.6595 0.0961914C22.1099 0.0961914 22.4748 0.461133 22.4748 0.911475V1.72676C22.4748 2.1771 22.1099 2.54204 21.6595 2.54204Z" fill="#FFC033"/>
    <path d="M21.6595 6.61846C21.2092 6.61846 20.8442 6.25352 20.8442 5.80317V4.98789C20.8442 4.53755 21.2092 4.17261 21.6595 4.17261C22.1099 4.17261 22.4748 4.53755 22.4748 4.98789V5.80317C22.4748 6.25352 22.1099 6.61846 21.6595 6.61846Z" fill="#F9A926"/>
    <path d="M20.029 4.17256H19.2137C18.7634 4.17256 18.3984 3.80762 18.3984 3.35728C18.3984 2.90693 18.7634 2.54199 19.2137 2.54199H20.029C20.4793 2.54199 20.8443 2.90693 20.8443 3.35728C20.8443 3.80762 20.4794 4.17256 20.029 4.17256Z" fill="#FFC033"/>
    <path d="M24.1052 4.17256H23.2899C22.8396 4.17256 22.4746 3.80762 22.4746 3.35728C22.4746 2.90693 22.8396 2.54199 23.2899 2.54199H24.1052C24.5553 2.54199 24.9205 2.90693 24.9205 3.35728C24.9205 3.80762 24.5553 4.17256 24.1052 4.17256Z" fill="#F9A926"/>
    <path d="M24.2688 12.675C23.3176 11.7184 21.7632 11.7184 20.812 12.675C19.8608 13.6261 19.8608 15.1806 20.812 16.1317C21.274 16.5938 21.8882 16.8492 22.5404 16.8492C23.1926 16.8492 23.8068 16.5937 24.2688 16.1317C25.2254 15.1806 25.2254 13.6261 24.2688 12.675ZM23.119 14.9753C22.7893 15.3055 22.2815 15.2948 21.9651 14.979C21.653 14.6669 21.653 14.1398 21.9651 13.8277C22.2856 13.5059 22.8001 13.5108 23.1126 13.8245C23.4432 14.1539 23.4282 14.668 23.119 14.9753Z" fill="#F9A926"/>
    <path d="M13.1112 12.721C12.9026 12.721 12.694 12.6414 12.5347 12.4822C12.2163 12.164 12.2163 11.6475 12.5347 11.3293L17.6242 6.23982C17.9427 5.92136 18.4586 5.92136 18.7771 6.23982C19.0955 6.55798 19.0955 7.07444 18.7771 7.3927L13.6876 12.4821C13.5283 12.6414 13.3198 12.721 13.1112 12.721Z" fill="#FFC033"/>
    <path d="M12.5347 12.4821C12.6939 12.6413 12.9025 12.7209 13.1111 12.7209C13.3196 12.7209 13.5283 12.6413 13.6875 12.4821L18.777 7.39263C19.0954 7.07446 19.0954 6.55801 18.777 6.23975L12.5347 12.4821Z" fill="#F9A926"/>
    <path d="M6.34375 20.8043V23.1061L1.10146 24.9519C0.779148 25.0655 0.463377 24.9677 0.255759 24.7611C0.046482 24.553 -0.0523949 24.2355 0.0617164 23.9116L1.90971 18.6753H4.21694L5.27842 19.7379L6.34375 20.8043Z" fill="#F26D76"/>
    <path d="M6.34385 20.8044V23.1062L1.10156 24.9521C0.779248 25.0656 0.463477 24.9678 0.255859 24.7613L5.27856 19.738L6.34385 20.8044Z" fill="#E65C64"/>
    <path d="M4.01709 15.5939L9.42817 21.007H12.2958L15.3496 19.9309C15.7747 19.7783 15.9962 19.3164 15.8496 18.8873L6.12603 9.16914C5.70317 9.01733 5.23486 9.23916 5.08789 9.66377L4.01709 12.6976V15.5939V15.5939Z" fill="#F26D76"/>
    <path d="M9.42861 21.0072H12.2963L15.35 19.9311C15.7751 19.7785 15.9966 19.3166 15.85 18.8875L10.9884 14.0286L6.71973 18.2973L9.42861 21.0072Z" fill="#E65C64"/>
    <path d="M4.01201 12.7075L1.90869 18.6754L6.3438 23.1051L6.36011 23.0997L12.3062 21.0017L4.01201 12.7075Z" fill="#FFC033"/>
    <path d="M6.34341 23.1051L6.35972 23.0997L12.3058 21.0017L8.1603 16.8562L4.12598 20.8904L6.34341 23.1051Z" fill="#F9A926"/>
    <path d="M16.232 21.1297C16.0234 21.1297 15.8148 21.0501 15.6556 20.8908L4.12556 9.36096C3.8071 9.0428 3.8071 8.52634 4.12556 8.20808C4.44402 7.88962 4.95999 7.88962 5.27844 8.20808L16.8084 19.738C17.1268 20.0562 17.1268 20.5726 16.8084 20.8909C16.6491 21.0501 16.4406 21.1297 16.232 21.1297Z" fill="#4F9D90"/>
    <path d="M15.6556 20.8909C15.8148 21.0501 16.0235 21.1298 16.232 21.1298C16.4406 21.1298 16.6492 21.0501 16.8084 20.8909C17.1269 20.5728 17.1269 20.0563 16.8084 19.738L11.0435 13.9731L9.89062 15.126L15.6556 20.8909Z" fill="#4F9D90"/>
  </g>
  <defs>
    <clipPath id="clip0_574_81">
      <rect width="25" height="25" fill="white"/>
    </clipPath>
  </defs>
</svg>