<svg xmlns="http://www.w3.org/2000/svg" width="55" height="44" viewBox="0 0 55 44" fill="none">
  <path d="M37.0563 39.8749H17.9438C17.4127 39.8749 16.9034 39.7062 16.5279 39.4058C16.1524 39.1053 15.9414 38.6979 15.9414 38.2731V19.8618C15.9408 19.7521 15.9688 19.6435 16.0235 19.5429C16.0783 19.4422 16.1586 19.3519 16.2594 19.2774L26.4086 11.6874C26.5921 11.5541 26.831 11.4802 27.0789 11.4802C27.3268 11.4802 27.5658 11.5541 27.7492 11.6874L38.7149 19.2499C38.8223 19.3256 38.9085 19.4187 38.9677 19.523C39.027 19.6273 39.0579 19.7404 39.0586 19.8549V38.2937C39.0518 38.7149 38.8379 39.1171 38.4631 39.4131C38.0883 39.709 37.5829 39.875 37.0563 39.8749Z" stroke="#FAC907" stroke-width="2.8125" stroke-linecap="round"/>
  <path d="M27.5 17.325C23.7273 17.325 20.668 14.3619 20.668 10.7112C20.668 7.06062 23.7273 4.125 27.5 4.125C31.2727 4.125 34.375 7.08125 34.375 10.7319" stroke="#FAC907" stroke-width="2.8125" stroke-linecap="round"/>
  <path d="M34.1857 32.23C33.2059 32.8279 32.0453 33.207 30.8224 33.3286C29.5995 33.4502 28.3582 33.3099 27.2252 32.922C26.0923 32.5342 25.1084 31.9127 24.374 31.121C23.6396 30.3293 23.1811 29.3959 23.0453 28.416C22.9095 27.4362 23.1013 26.4451 23.6011 25.5439C24.1009 24.6428 24.8907 23.864 25.8899 23.287C26.8891 22.71 28.0619 22.3556 29.2884 22.2599C30.5149 22.1643 31.7512 22.3308 32.8709 22.7425" stroke="#FAC907" stroke-width="2.8125"/>
  <path d="M19.4907 26.1731H31.0837" stroke="#FAC907" stroke-width="2"/>
  <path d="M19.4907 29.645H29.6829" stroke="#FAC907" stroke-width="2"/>
</svg>