<svg xmlns="http://www.w3.org/2000/svg" width="46" height="40" viewBox="0 0 46 40" fill="none">
  <path d="M30.9927 36.2499H15.0077C14.5635 36.2499 14.1376 36.0965 13.8235 35.8234C13.5095 35.5503 13.333 35.1799 13.333 34.7936V18.0561C13.3325 17.9564 13.3559 17.8576 13.4017 17.7662C13.4475 17.6747 13.5147 17.5926 13.599 17.5249L22.0874 10.6249C22.2408 10.5037 22.4407 10.4365 22.648 10.4365C22.8553 10.4365 23.0552 10.5037 23.2086 10.6249L32.3799 17.4999C32.4697 17.5687 32.5418 17.6533 32.5914 17.7481C32.6409 17.8429 32.6668 17.9458 32.6674 18.0499V34.8124C32.6617 35.1954 32.4828 35.561 32.1693 35.83C31.8559 36.0991 31.4331 36.2499 30.9927 36.2499Z" stroke="#FAC907" stroke-width="2.8125" stroke-linecap="round"/>
  <path d="M23.0002 15.75C19.8449 15.75 17.2861 13.0562 17.2861 9.7375C17.2861 6.41875 19.8449 3.75 23.0002 3.75C26.1555 3.75 28.7502 6.4375 28.7502 9.75625" stroke="#FAC907" stroke-width="2.8125" stroke-linecap="round"/>
  <path d="M28.5916 29.3C27.7722 29.8436 26.8015 30.1882 25.7787 30.2988C24.7559 30.4093 23.7177 30.2817 22.7701 29.9291C21.8226 29.5765 20.9997 29.0115 20.3855 28.2918C19.7713 27.5721 19.3878 26.7235 19.2742 25.8328C19.1607 24.942 19.3211 24.041 19.7391 23.2218C20.157 22.4026 20.8176 21.6945 21.6534 21.17C22.4891 20.6455 23.4699 20.3233 24.4957 20.2363C25.5215 20.1493 26.5555 20.3007 27.492 20.675" stroke="#FAC907" stroke-width="2.8125"/>
  <path d="M16.3013 23.7937H25.9972" stroke="#FAC907" stroke-width="2"/>
  <path d="M16.3013 26.95H24.8256" stroke="#FAC907" stroke-width="2"/>
</svg>