<svg xmlns="http://www.w3.org/2000/svg" width="20" height="20" viewBox="0 0 20 20" fill="none">
  <path d="M19.1188 6.5409C19.1569 6.49246 19.1852 6.437 19.2019 6.37765C19.2187 6.31831 19.2235 6.25625 19.2163 6.19503C19.209 6.13381 19.1898 6.07459 19.1597 6.02081C19.1295 5.96703 19.0891 5.91968 19.0407 5.88153C18.9922 5.84337 18.9368 5.81509 18.8774 5.79837C18.8181 5.78165 18.756 5.77678 18.6948 5.78403C18.6336 5.79128 18.5743 5.81053 18.5206 5.84065C18.4668 5.87078 18.4194 5.91121 18.3813 5.95965C18.3438 6.00965 14.5438 10.7815 10 10.7815C5.45628 10.7815 1.65628 6.00965 1.61878 5.95965C1.5417 5.86184 1.42893 5.79868 1.30527 5.78403C1.18161 5.76937 1.0572 5.80443 0.959405 5.88153C0.861605 5.95859 0.79843 6.07137 0.78378 6.19503C0.76913 6.31868 0.804199 6.44309 0.88128 6.5409C1.58886 7.4055 2.38136 8.19696 3.24691 8.9034L1.93441 10.2159C1.89056 10.2592 1.85576 10.3108 1.832 10.3677C1.80824 10.4245 1.79601 10.4855 1.79601 10.5472C1.79601 10.6088 1.80824 10.6698 1.832 10.7267C1.85576 10.7835 1.89056 10.8351 1.93441 10.8784C2.0223 10.9662 2.14143 11.0155 2.26566 11.0155C2.38987 11.0155 2.50901 10.9662 2.59691 10.8784L3.99378 9.48465C5.47816 10.5722 7.39691 11.5722 9.53128 11.7034V13.7503C9.53128 13.8746 9.58066 13.9938 9.66856 14.0817C9.75647 14.1696 9.87572 14.219 10 14.219C10.1243 14.219 10.2436 14.1696 10.3315 14.0817C10.4194 13.9938 10.4688 13.8746 10.4688 13.7503V11.7034C12.6032 11.5722 14.5313 10.5722 16.0063 9.48465L17.4032 10.8784C17.491 10.9662 17.6102 11.0155 17.7344 11.0155C17.8586 11.0155 17.9778 10.9662 18.0657 10.8784C18.1095 10.8351 18.1443 10.7835 18.1681 10.7267C18.1918 10.6698 18.2041 10.6088 18.2041 10.5472C18.2041 10.4855 18.1918 10.4245 18.1681 10.3677C18.1443 10.3108 18.1095 10.2592 18.0657 10.2159L16.7532 8.9034C17.6187 8.19696 18.4112 7.4055 19.1188 6.5409Z" fill="#898787"/>
</svg>