<svg xmlns="http://www.w3.org/2000/svg" width="27" height="27" viewBox="0 0 27 27" fill="none">
  <path d="M13.5 27C20.9558 27 27 20.9558 27 13.5C27 6.04416 20.9558 0 13.5 0C6.04416 0 0 6.04416 0 13.5C0 20.9558 6.04416 27 13.5 27Z" fill="#FFF4CA"/>
  <path d="M10.0229 2.09961C15.8358 6.21656 18.3003 10.0377 18.3003 13.5C18.3003 16.3713 16.6044 19.4885 12.7104 22.8174C13.0635 21.1795 13.1398 19.6569 13.0161 18.2227C12.7813 15.5 11.8411 13.1972 10.9878 11.2188C10.1007 9.16192 9.37243 7.57356 9.19092 5.9502C9.05956 4.7749 9.21979 3.53713 10.0229 2.09961Z" fill="#F65681" stroke="#FA8966" stroke-width="3"/>
</svg>