<svg xmlns="http://www.w3.org/2000/svg" width="65" height="65" viewBox="0 0 65 65" fill="none">
    <path d="M51.6343 31.4946H13.396V57.0376H51.6343V31.4946Z" stroke="#FAC907" stroke-width="2.8125" stroke-linecap="round"/>
    <path d="M54.2446 24.1313H10.7454C10.1733 24.1313 9.70947 24.5952 9.70947 25.1673V30.4485C9.70947 31.0207 10.1733 31.4845 10.7454 31.4845H54.2446C54.8168 31.4845 55.2806 31.0207 55.2806 30.4485V25.1673C55.2806 24.5952 54.8168 24.1313 54.2446 24.1313Z" stroke="#FAC907" stroke-width="2.8125" stroke-linecap="round"/>
    <path d="M46.4445 10.0139C45.448 9.12399 44.205 8.55737 42.8796 8.3889C37.507 7.80999 35.689 16.6358 33.0281 22.9428C32.9911 23.0351 32.9821 23.1362 33.0021 23.2336C33.022 23.3309 33.0701 23.4203 33.1404 23.4906C33.2107 23.5609 33.3001 23.609 33.3975 23.629C33.4948 23.6489 33.5959 23.6399 33.6882 23.603C39.9546 20.942 48.3742 19.0631 48.2421 13.7616C48.2058 13.0489 48.0282 12.3506 47.7196 11.7072C47.411 11.0638 46.9776 10.4882 46.4445 10.0139Z" stroke="#FAC907" stroke-width="2.8125" stroke-linecap="round"/>
    <path d="M22.1306 7.98259C20.8078 8.14929 19.5675 8.71628 18.5759 9.60759C18.0419 10.0818 17.6071 10.6572 17.2968 11.3004C16.9865 11.9437 16.8068 12.6421 16.7681 13.3552C16.6361 18.6568 25.0556 20.5357 31.322 23.1967C31.4143 23.2336 31.5154 23.2426 31.6128 23.2227C31.7102 23.2027 31.7995 23.1546 31.8698 23.0843C31.9401 23.014 31.9882 22.9246 32.0082 22.8273C32.0282 22.7299 32.0191 22.6288 31.9822 22.5365C29.3213 16.2498 27.5033 7.40369 22.1306 7.98259Z" stroke="#FAC907" stroke-width="2.8125" stroke-linecap="round"/>
    <path d="M32.5103 23.7251V57.0376" stroke="#FAC907" stroke-width="2.8125" stroke-linecap="round"/>
</svg>