<svg xmlns="http://www.w3.org/2000/svg" width="20" height="20" viewBox="0 0 20 18" fill="none">
  <g clip-path="url(#clip0_137_868)">
    <path fill-rule="evenodd" clip-rule="evenodd" d="M10 13.5C12.7614 13.5 15 11.4853 15 9C15 6.51472 12.7614 4.5 10 4.5C7.23857 4.5 5 6.51472 5 9C5 11.4853 7.23857 13.5 10 13.5ZM10 12C11.8409 12 13.3333 10.6568 13.3333 9C13.3333 7.34314 11.8409 6 10 6C8.15905 6 6.66667 7.34314 6.66667 9C6.66667 10.6568 8.15905 12 10 12Z" fill="#9AA69D"/>
    <path d="M15.0001 3.75C14.5398 3.75 14.1667 4.08579 14.1667 4.5C14.1667 4.91421 14.5398 5.25 15.0001 5.25C15.4603 5.25 15.8334 4.91421 15.8334 4.5C15.8334 4.08579 15.4603 3.75 15.0001 3.75Z" fill="#9AA69D"/>
    <path fill-rule="evenodd" clip-rule="evenodd" d="M1.37822 3.20705C0.833252 4.16965 0.833252 5.42977 0.833252 7.95V10.05C0.833252 12.5702 0.833252 13.8304 1.37822 14.7929C1.85759 15.6397 2.62249 16.3281 3.5633 16.7595C4.63286 17.25 6.03299 17.25 8.83325 17.25H11.1666C13.9668 17.25 15.367 17.25 16.4365 16.7595C17.3773 16.3281 18.1423 15.6397 18.6216 14.7929C19.1666 13.8304 19.1666 12.5702 19.1666 10.05V7.95C19.1666 5.42977 19.1666 4.16965 18.6216 3.20705C18.1423 2.36031 17.3773 1.6719 16.4365 1.24047C15.367 0.75 13.9668 0.75 11.1666 0.75H8.83325C6.03299 0.75 4.63286 0.75 3.5633 1.24047C2.62249 1.6719 1.85759 2.36031 1.37822 3.20705ZM11.1666 2.25H8.83325C7.40562 2.25 6.43513 2.25117 5.68499 2.30632C4.95429 2.36005 4.58062 2.45744 4.31995 2.57698C3.69274 2.8646 3.18281 3.32354 2.86323 3.88803C2.73041 4.12263 2.6222 4.45893 2.5625 5.11656C2.50122 5.79169 2.49992 6.66513 2.49992 7.95V10.05C2.49992 11.3349 2.50122 12.2083 2.5625 12.8834C2.6222 13.5411 2.73041 13.8774 2.86323 14.112C3.18281 14.6764 3.69274 15.1354 4.31995 15.423C4.58062 15.5425 4.95429 15.64 5.68499 15.6937C6.43513 15.7488 7.40562 15.75 8.83325 15.75H11.1666C12.5943 15.75 13.5647 15.7488 14.3148 15.6937C15.0456 15.64 15.4193 15.5425 15.6799 15.423C16.3071 15.1354 16.817 14.6764 17.1366 14.112C17.2694 13.8774 17.3777 13.5411 17.4373 12.8834C17.4986 12.2083 17.4999 11.3349 17.4999 10.05V7.95C17.4999 6.66513 17.4986 5.79169 17.4373 5.11656C17.3777 4.45893 17.2694 4.12263 17.1366 3.88803C16.817 3.32354 16.3071 2.8646 15.6799 2.57698C15.4193 2.45744 15.0456 2.36005 14.3148 2.30632C13.5647 2.25117 12.5943 2.25 11.1666 2.25Z" fill="#9D96A4"/>
    <path fill-rule="evenodd" clip-rule="evenodd" d="M1.37846 3.20705C0.833496 4.16965 0.833496 5.42977 0.833496 7.95V10.05C0.833496 12.5702 0.833496 13.8304 1.37846 14.7929C1.85783 15.6397 2.62273 16.3281 3.56355 16.7595C4.6331 17.25 6.03324 17.25 8.8335 17.25H11.1668C13.9671 17.25 15.3672 17.25 16.4367 16.7595C17.3776 16.3281 18.1425 15.6397 18.6218 14.7929C19.1668 13.8304 19.1668 12.5702 19.1668 10.05V7.95C19.1668 5.42977 19.1668 4.16965 18.6218 3.20705C18.1425 2.36031 17.3776 1.6719 16.4367 1.24047C15.3672 0.75 13.9671 0.75 11.1668 0.75H8.8335C6.03324 0.75 4.6331 0.75 3.56355 1.24047C2.62273 1.6719 1.85783 2.36031 1.37846 3.20705ZM11.1668 2.25H8.8335C7.40586 2.25 6.43537 2.25117 5.68523 2.30632C4.95453 2.36005 4.58086 2.45744 4.3202 2.57698C3.69299 2.8646 3.18305 3.32354 2.86347 3.88803C2.73065 4.12263 2.62245 4.45893 2.56275 5.11656C2.50146 5.79169 2.50016 6.66513 2.50016 7.95V10.05C2.50016 11.3349 2.50146 12.2083 2.56275 12.8834C2.62245 13.5411 2.73065 13.8774 2.86347 14.112C3.18305 14.6764 3.69299 15.1354 4.3202 15.423C4.58086 15.5425 4.95453 15.64 5.68523 15.6937C6.43537 15.7488 7.40586 15.75 8.8335 15.75H11.1668C12.5945 15.75 13.5649 15.7488 14.3151 15.6937C15.0458 15.64 15.4195 15.5425 15.6802 15.423C16.3073 15.1354 16.8172 14.6764 17.1368 14.112C17.2697 13.8774 17.3779 13.5411 17.4376 12.8834C17.4988 12.2083 17.5002 11.3349 17.5002 10.05V7.95C17.5002 6.66513 17.4988 5.79169 17.4376 5.11656C17.3779 4.45893 17.2697 4.12263 17.1368 3.88803C16.8172 3.32354 16.3073 2.8646 15.6802 2.57698C15.4195 2.45744 15.0458 2.36005 14.3151 2.30632C13.5649 2.25117 12.5945 2.25 11.1668 2.25Z" fill="#9D96A4"/>
    <path fill-rule="evenodd" clip-rule="evenodd" d="M1.37846 3.20705C0.833496 4.16965 0.833496 5.42977 0.833496 7.95V10.05C0.833496 12.5702 0.833496 13.8304 1.37846 14.7929C1.85783 15.6397 2.62273 16.3281 3.56355 16.7595C4.6331 17.25 6.03324 17.25 8.8335 17.25H11.1668C13.9671 17.25 15.3672 17.25 16.4367 16.7595C17.3776 16.3281 18.1425 15.6397 18.6218 14.7929C19.1668 13.8304 19.1668 12.5702 19.1668 10.05V7.95C19.1668 5.42977 19.1668 4.16965 18.6218 3.20705C18.1425 2.36031 17.3776 1.6719 16.4367 1.24047C15.3672 0.75 13.9671 0.75 11.1668 0.75H8.8335C6.03324 0.75 4.6331 0.75 3.56355 1.24047C2.62273 1.6719 1.85783 2.36031 1.37846 3.20705ZM11.1668 2.25H8.8335C7.40586 2.25 6.43537 2.25117 5.68523 2.30632C4.95453 2.36005 4.58086 2.45744 4.3202 2.57698C3.69299 2.8646 3.18305 3.32354 2.86347 3.88803C2.73065 4.12263 2.62245 4.45893 2.56275 5.11656C2.50146 5.79169 2.50016 6.66513 2.50016 7.95V10.05C2.50016 11.3349 2.50146 12.2083 2.56275 12.8834C2.62245 13.5411 2.73065 13.8774 2.86347 14.112C3.18305 14.6764 3.69299 15.1354 4.3202 15.423C4.58086 15.5425 4.95453 15.64 5.68523 15.6937C6.43537 15.7488 7.40586 15.75 8.8335 15.75H11.1668C12.5945 15.75 13.5649 15.7488 14.3151 15.6937C15.0458 15.64 15.4195 15.5425 15.6802 15.423C16.3073 15.1354 16.8172 14.6764 17.1368 14.112C17.2697 13.8774 17.3779 13.5411 17.4376 12.8834C17.4988 12.2083 17.5002 11.3349 17.5002 10.05V7.95C17.5002 6.66513 17.4988 5.79169 17.4376 5.11656C17.3779 4.45893 17.2697 4.12263 17.1368 3.88803C16.8172 3.32354 16.3073 2.8646 15.6802 2.57698C15.4195 2.45744 15.0458 2.36005 14.3151 2.30632C13.5649 2.25117 12.5945 2.25 11.1668 2.25Z" fill="#9D96A4"/>
  </g>
  <defs>
    <clipPath id="clip0_137_868">
      <rect width="20" height="18" fill="white"/>
    </clipPath>
  </defs>
</svg>