<svg xmlns="http://www.w3.org/2000/svg" width="27" height="27" viewBox="0 0 27 27" fill="none">
  <path d="M13.5 27C20.9558 27 27 20.9558 27 13.5C27 6.04416 20.9558 0 13.5 0C6.04416 0 0 6.04416 0 13.5C0 20.9558 6.04416 27 13.5 27Z" fill="#E9F2EB"/>
  <path d="M13.5 0.5C20.6797 0.5 26.5 6.3203 26.5 13.5C26.5 20.6797 20.6797 26.5 13.5 26.5C6.3203 26.5 0.5 20.6797 0.5 13.5C0.5 6.3203 6.3203 0.5 13.5 0.5Z" stroke="#FFBDD5" stroke-opacity="0.71"/>
  <path d="M13.5 19C16.5376 19 19 16.5376 19 13.5C19 10.4624 16.5376 8 13.5 8C10.4624 8 8 10.4624 8 13.5C8 16.5376 10.4624 19 13.5 19Z" fill="#E9F2EB"/>
  <path d="M13.5 8.5C16.2614 8.5 18.5 10.7386 18.5 13.5C18.5 16.2614 16.2614 18.5 13.5 18.5C10.7386 18.5 8.5 16.2614 8.5 13.5C8.5 10.7386 10.7386 8.5 13.5 8.5Z" stroke="#FFBDD5" stroke-opacity="0.71"/>
</svg>