<svg xmlns="http://www.w3.org/2000/svg" width="55" height="55" viewBox="0 0 55 55" fill="none">
  <path d="M23.913 33.1795C23.913 32.0436 22.9565 31.0871 21.8207 31.0871H14.0489C12.913 31.0871 11.9565 32.0436 11.9565 33.1795V40.9512C11.9565 42.0871 12.913 43.0436 14.0489 43.0436H21.8207C22.9565 43.0436 23.913 42.0871 23.913 40.9512V33.1795ZM14.5 34.0762L17 34.0762L21 34.0762L21 40L14.5 40L14.5 34.0762ZM54.3424 15.1849L49.0217 9.8045V3.58711C49.0217 2.27189 47.9457 1.1958 46.5707 1.1958H8.42935C7.05435 1.1958 5.97826 2.27189 5.97826 3.58711V9.8045L0.657609 15.1849C0.239131 15.6034 0 16.2012 0 16.8588V22.9567C0 24.2719 1.07609 25.1088 2.3913 25.1088H52.6087C53.9239 25.1088 55 24.2719 55 22.8969V16.8588C55 16.2012 54.7609 15.6034 54.3424 15.1849ZM45.5 4V8.96754L9.5 8.96754V4L45.5 4ZM52 21.5L3.58696 21.5V17.8154L7.5 12L47 12L52 17.8154L52 21.5ZM51.413 29.9512V51.4132C51.413 52.7284 50.337 53.8045 49.0217 53.8045H40.8315C39.5163 53.8045 39.5 52.7284 39.5 51.4132L39.5 37L31.5 37L31.5 51.4132C31.5 52.7284 31.7446 53.8045 30.4294 53.8045H6.03804C4.72283 53.8045 3.58696 52.7284 3.58696 51.4132V29.9512C3.58696 28.636 3.68478 27.5599 5 27.5599C6.31522 27.5599 6.03804 28.636 6.03804 29.9512V51L28.0978 51L28.0978 36.2284C28.0978 34.9132 29.1141 34.0762 30.4294 34.0762H40.7717C42.087 34.0762 42.9837 34.9132 42.9837 36.2284V51H48.5V29.9512C48.5 28.636 48.6848 27.5599 50 27.5599C51.3152 27.5599 51.413 28.636 51.413 29.9512Z" fill="#FAC907"/>
</svg>