<svg xmlns="http://www.w3.org/2000/svg" width="35" height="35" viewBox="0 0 35 35" fill="none">
  <path d="M23.5813 31.7188H11.4188C11.0808 31.7188 10.7567 31.5845 10.5177 31.3456C10.2788 31.1066 10.1445 30.7825 10.1445 30.4446V15.7993C10.1442 15.712 10.162 15.6256 10.1968 15.5455C10.2316 15.4655 10.2827 15.3936 10.3469 15.3344L16.8055 9.29691C16.9222 9.19084 17.0743 9.13208 17.232 9.13208C17.3898 9.13208 17.5418 9.19084 17.6586 9.29691L24.6367 15.3125C24.7051 15.3728 24.7599 15.4468 24.7976 15.5297C24.8353 15.6127 24.8551 15.7027 24.8555 15.7938V30.461C24.8512 30.7961 24.715 31.116 24.4765 31.3514C24.238 31.5868 23.9164 31.7188 23.5813 31.7188Z" stroke="#FAC907" stroke-width="2.8125" stroke-linecap="round"/>
  <path d="M17.5 13.7813C15.0992 13.7813 13.1523 11.4242 13.1523 8.52031C13.1523 5.61641 15.0992 3.28125 17.5 3.28125C19.9008 3.28125 21.875 5.63281 21.875 8.53672" stroke="#FAC907" stroke-width="2.8125" stroke-linecap="round"/>
  <path d="M21.7547 25.6374C21.1312 26.1131 20.3926 26.4146 19.6144 26.5113C18.8362 26.6081 18.0462 26.4965 17.3253 26.1879C16.6043 25.8794 15.9782 25.385 15.5109 24.7553C15.0435 24.1255 14.7518 23.383 14.6653 22.6036C14.5789 21.8242 14.701 21.0358 15.019 20.319C15.3371 19.6022 15.8397 18.9826 16.4755 18.5237C17.1114 18.0647 17.8577 17.7828 18.6382 17.7067C19.4187 17.6306 20.2054 17.7631 20.918 18.0906" stroke="#FAC907"/>
  <path d="M12.4031 20.8196H19.7805" stroke="#FAC907"/>
  <path d="M12.4031 23.5813H18.8891" stroke="#FAC907"/>
</svg>