<svg xmlns="http://www.w3.org/2000/svg" width="16" height="16" viewBox="0 0 16 16" fill="none">
  <path d="M12.7461 5.24634L10.9204 3.4206C10.0293 2.52956 9.58385 2.08405 9.0701 1.91712C8.61822 1.77029 8.1314 1.77029 7.67952 1.91712C7.16577 2.08405 6.72028 2.52956 5.82923 3.4206L4.62481 4.62502M1.25 14.7498L1.28559 14.5007C1.41152 13.6192 1.47449 13.1784 1.61772 12.7669C1.74481 12.4017 1.91843 12.0545 2.13429 11.7338C2.37756 11.3723 2.69239 11.0574 3.32206 10.4278L12.058 1.69178C12.6438 1.10599 13.5936 1.10599 14.1794 1.69178C14.7652 2.27757 14.7652 3.22732 14.1794 3.8131L5.28308 12.7094C4.71184 13.2807 4.42623 13.5663 4.1009 13.7934C3.81213 13.995 3.5007 14.162 3.17299 14.291C2.80378 14.4363 2.40781 14.5162 1.61595 14.676L1.25 14.7498Z" stroke="black" stroke-linecap="round" stroke-linejoin="round"/>
</svg>