<svg xmlns="http://www.w3.org/2000/svg" width="30" height="30" viewBox="0 0 30 30" fill="none">
  <path fill-rule="evenodd" clip-rule="evenodd" d="M15 12.9521C14.1735 12.9521 13.5 12.2786 13.5 11.4521C13.5 10.6256 14.1735 9.95215 15 9.95215C15.8265 9.95215 16.5 10.6256 16.5 11.4521C16.5 12.2786 15.8265 12.9521 15 12.9521ZM15 6.95215C12.5145 6.95215 10.5 8.96665 10.5 11.4521C10.5 13.9376 12.5145 15.9521 15 15.9521C17.4855 15.9521 19.5 13.9376 19.5 11.4521C19.5 8.96665 17.4855 6.95215 15 6.95215ZM15 25.5C15 25.5 7.5 15 7.5 10.5C7.5 6.3645 10.8645 3 15 3C19.1355 3 22.5 6.3645 22.5 10.5C22.5 15 15 25.5 15 25.5ZM15 0C9.201 0 4.5 4.701 4.5 10.5C4.5 16.299 15 30 15 30C15 30 25.5 16.299 25.5 10.5C25.5 4.701 20.799 0 15 0Z" fill="#FAC907"/>
</svg>