<svg xmlns="http://www.w3.org/2000/svg" width="30" height="30" viewBox="0 0 30 30" fill="none">
  <path d="M23.8312 14.5359H6.1828V26.325H23.8312V14.5359Z" stroke="#FAC907" stroke-width="2.8125" stroke-linecap="round"/>
  <path d="M25.0359 11.1375H4.95939C4.69533 11.1375 4.48126 11.3515 4.48126 11.6156V14.0531C4.48126 14.3171 4.69533 14.5312 4.95939 14.5312H25.0359C25.3 14.5312 25.5141 14.3171 25.5141 14.0531V11.6156C25.5141 11.3515 25.3 11.1375 25.0359 11.1375Z" stroke="#FAC907" stroke-width="2.8125" stroke-linecap="round"/>
  <path d="M21.436 4.62188C20.976 4.21115 20.4023 3.94963 19.7906 3.87188C17.311 3.60469 16.4719 7.67813 15.2438 10.5891C15.2267 10.6317 15.2226 10.6783 15.2318 10.7233C15.241 10.7682 15.2632 10.8094 15.2956 10.8419C15.3281 10.8743 15.3693 10.8965 15.4143 10.9058C15.4592 10.915 15.5059 10.9108 15.5485 10.8937C18.4406 9.66562 22.3266 8.79844 22.2656 6.35156C22.2489 6.02265 22.1669 5.70035 22.0245 5.40341C21.8821 5.10646 21.682 4.8408 21.436 4.62188Z" stroke="#FAC907" stroke-width="2.8125" stroke-linecap="round"/>
  <path d="M10.2141 3.68435C9.60352 3.76129 9.03108 4.02297 8.57343 4.43435C8.32693 4.65321 8.12628 4.91876 7.98306 5.21565C7.83984 5.51255 7.75691 5.83489 7.73905 6.16404C7.67811 8.61091 11.5641 9.4781 14.4562 10.7062C14.4988 10.7233 14.5455 10.7274 14.5904 10.7182C14.6354 10.709 14.6766 10.6868 14.7091 10.6544C14.7415 10.6219 14.7637 10.5807 14.7729 10.5357C14.7821 10.4908 14.778 10.4441 14.7609 10.4015C13.5328 7.49997 12.6937 3.41716 10.2141 3.68435Z" stroke="#FAC907" stroke-width="2.8125" stroke-linecap="round"/>
  <path d="M15.0047 10.95V26.325" stroke="#FAC907" stroke-width="2.8125" stroke-linecap="round"/>
</svg>