<svg xmlns="http://www.w3.org/2000/svg" width="30" height="30" viewBox="0 0 30 30" fill="none">
  <path d="M15.2001 13.5875C15.0751 13.575 14.9251 13.575 14.7876 13.5875C11.8126 13.4875 9.45007 11.05 9.45007 8.05C9.45007 4.9875 11.9251 2.5 15.0001 2.5C18.0626 2.5 20.5501 4.9875 20.5501 8.05C20.5376 11.05 18.1751 13.4875 15.2001 13.5875Z" stroke="#FAC907" stroke-width="3.75" stroke-linecap="round" stroke-linejoin="round"/>
  <path d="M8.94996 18.2C5.92496 20.225 5.92496 23.525 8.94996 25.5375C12.3875 27.8375 18.025 27.8375 21.4625 25.5375C24.4875 23.5125 24.4875 20.2125 21.4625 18.2C18.0375 15.9125 12.4 15.9125 8.94996 18.2Z" stroke="#FAC907" stroke-width="3.75" stroke-linecap="round" stroke-linejoin="round"/>
</svg>