<svg width="70" height="70" viewBox="0 0 70 70" fill="none" xmlns="http://www.w3.org/2000/svg">
<path d="M47.1625 63.4376H22.8375C22.1616 63.4376 21.5134 63.1691 21.0355 62.6911C20.5576 62.2132 20.2891 61.565 20.2891 60.8891V31.5985C20.2883 31.4239 20.3239 31.2511 20.3936 31.0911C20.4633 30.931 20.5655 30.7872 20.6938 30.6688L33.6109 18.5938C33.8445 18.3817 34.1486 18.2642 34.4641 18.2642C34.7795 18.2642 35.0837 18.3817 35.3172 18.5938L49.2735 30.6251C49.4102 30.7455 49.5199 30.8936 49.5953 31.0595C49.6707 31.2254 49.7101 31.4053 49.711 31.5876V60.9219C49.7023 61.5921 49.43 62.2319 48.953 62.7028C48.476 63.1736 47.8328 63.4376 47.1625 63.4376Z" stroke="#FAC907" stroke-width="2.8125" stroke-linecap="round"/>
<path d="M35 27.5625C30.1984 27.5625 26.3047 22.8484 26.3047 17.0406C26.3047 11.2328 30.1984 6.5625 35 6.5625C39.8016 6.5625 43.75 11.2656 43.75 17.0734" stroke="#FAC907" stroke-width="2.8125" stroke-linecap="round"/>
<path d="M43.5095 51.2749C42.2625 52.2261 40.7853 52.8293 39.2289 53.0227C37.6725 53.2161 36.0926 52.9929 34.6507 52.3759C33.2088 51.7588 31.9565 50.77 31.0219 49.5106C30.0872 48.2511 29.5036 46.7661 29.3308 45.2072C29.158 43.6484 29.4021 42.0716 30.0382 40.638C30.6742 39.2043 31.6795 37.9653 32.9512 37.0474C34.2229 36.1294 35.7156 35.5656 37.2766 35.4134C38.8376 35.2612 40.411 35.5261 41.836 36.1811" stroke="#FAC907" stroke-width="2.8125"/>
<path d="M24.8062 41.6392H39.5608" stroke="#FAC907" stroke-width="2.8125"/>
<path d="M24.8062 47.1626H37.778" stroke="#FAC907" stroke-width="2.8125"/>
</svg>
