<svg xmlns="http://www.w3.org/2000/svg" width="27" height="27" viewBox="0 0 27 27" fill="none">
  <path d="M13.5 27C20.9558 27 27 20.9558 27 13.5C27 6.04416 20.9558 0 13.5 0C6.04416 0 0 6.04416 0 13.5C0 20.9558 6.04416 27 13.5 27Z" fill="#E9F2EB"/>
  <path d="M13.5 0.5C20.6797 0.5 26.5 6.3203 26.5 13.5C26.5 20.6797 20.6797 26.5 13.5 26.5C6.3203 26.5 0.5 20.6797 0.5 13.5C0.500001 6.3203 6.3203 0.5 13.5 0.5Z" stroke="#FFBDD5" stroke-opacity="0.75"/>
  <path d="M13.4999 0L16.6499 10.125L26.0999 13.5L16.6499 16.875L13.4999 27L10.3499 16.875L0.899902 13.5L10.3499 10.125L13.4999 0Z" fill="#E9F2EB"/>
  <path d="M16.1724 10.2734L16.2466 10.5117L16.4819 10.5957L24.6138 13.5L16.4819 16.4043L16.2466 16.4883L16.1724 16.7266L13.4995 25.3174L10.8276 16.7266L10.7534 16.4883L10.5181 16.4043L2.38525 13.5L10.5181 10.5957L10.7534 10.5117L10.8276 10.2734L13.4995 1.68164L16.1724 10.2734Z" stroke="#FFBDD5" stroke-opacity="0.75"/>
</svg>