<svg xmlns="http://www.w3.org/2000/svg" width="27" height="27" viewBox="0 0 27 27" fill="none">
  <path d="M13.5 27C20.9558 27 27 20.9558 27 13.5C27 6.04416 20.9558 0 13.5 0C6.04416 0 0 6.04416 0 13.5C0 20.9558 6.04416 27 13.5 27Z" fill="#FFF4CA"/>
  <path d="M15.6948 10.4219L15.8433 10.8984L16.314 11.0664L23.1274 13.5L16.314 15.9336L15.8433 16.1016L15.6948 16.5781L13.4995 23.6338L11.3052 16.5781L11.1567 16.1016L10.686 15.9336L3.87158 13.5L10.686 11.0664L11.1567 10.8984L11.3052 10.4219L13.4995 3.36523L15.6948 10.4219Z" fill="#FF73C0" stroke="#FFF4CA" stroke-width="2"/>
</svg>