<svg xmlns="http://www.w3.org/2000/svg" width="90" height="90" viewBox="0 0 123 114" fill="none">
  <path d="M61.2 113.4C94.9998 113.4 122.4 88.0145 122.4 56.7C122.4 25.3855 94.9998 0 61.2 0C27.4002 0 0 25.3855 0 56.7C0 88.0145 27.4002 113.4 61.2 113.4Z" fill="#FFF4CA"/>
  <path d="M74.532 42.8438L74.6912 43.3174L75.1658 43.4746L115.136 56.7002L75.1658 69.9258L74.6912 70.083L74.532 70.5566L61.2 110.258L47.8679 70.5566L47.7087 70.083L47.2341 69.9258L7.26245 56.7002L47.2341 43.4746L47.7087 43.3174L47.8679 42.8438L61.2 3.1416L74.532 42.8438Z" fill="#FF73C0" stroke="#FFF4CA" stroke-width="2"/>
</svg>