<svg xmlns="http://www.w3.org/2000/svg" width="60" height="60" viewBox="0 0 60 60" className={styles.spinner}>
    //             <defs>
    //                 <linearGradient id="spinGradient" x1="0%" y1="0%" x2="100%" y2="100%">
    //                 <stop offset="0%" stopColor="#F9B481" />
    //                 <stop offset="50%" stopColor="#FA8966" />
    //                 <stop offset="100%" stopColor="#F65681" />
    //                 </linearGradient>
    //                 <clipPath id="clip0_368_2">
    //                 <rect width="60" height="60" fill="white" />
    //                 </clipPath>
    //             </defs>
    //             <g clipPath="url(#clip0_368_2)">
    //                 <path
    //                 d="M39.3989 8.27529C39.3989 12.8376 35.6914 16.5451 31.1291 16.5451C26.5613 16.5451 22.8575 12.8376 22.8575 8.27529C22.8575 3.70746 26.5631 0 31.1291 0C35.6951 0 39.3989 3.70746 39.3989 8.27529ZM31.1346 50.7781C28.592 50.7745 26.5246 52.8309 26.5172 55.379C26.5117 57.9307 28.5663 59.9982 31.1126 60.0018C33.6625 60.0092 35.7299 57.9527 35.7336 55.4047C35.7428 52.8529 33.6827 50.7855 31.1346 50.7781ZM57.6959 31.8317C57.6959 30.1697 56.3494 28.8214 54.6855 28.8214C53.0198 28.8214 51.6697 30.1642 51.6697 31.8317C51.6697 33.4901 53.0143 34.8458 54.6855 34.8458C56.3476 34.8439 57.6959 33.4937 57.6959 31.8317ZM12.8321 31.8317C12.8321 28.9241 10.4766 26.5668 7.56717 26.5668C4.6577 26.5668 2.30408 28.9241 2.30408 31.8317C2.30408 34.7375 4.6577 37.0948 7.56717 37.0948C10.4766 37.0948 12.8321 34.7375 12.8321 31.8317ZM49.461 13.4907C48.5364 12.5624 47.0413 12.5661 46.113 13.4907C45.1866 14.4189 45.1866 15.9269 46.113 16.8514C47.0413 17.7797 48.5364 17.7797 49.461 16.8514C50.3855 15.9232 50.3855 14.4189 49.461 13.4907ZM18.2951 44.6767C16.1818 42.5744 12.7569 42.5744 10.6454 44.673C8.53394 46.7753 8.5321 50.1984 10.6454 52.3044C12.7587 54.4104 16.1818 54.414 18.2915 52.3044C20.4085 50.2039 20.4085 46.7826 18.2951 44.6767ZM49.9911 50.6882C51.1982 49.4738 51.1982 47.5073 49.9874 46.2928C48.7804 45.0858 46.8212 45.0858 45.6122 46.3002C44.4052 47.5109 44.4052 49.4775 45.6122 50.6937C46.8248 51.9027 48.7804 51.9027 49.9911 50.6882ZM18.4309 19.128C20.6103 16.9468 20.6103 13.4063 18.4309 11.2196C16.2516 9.03843 12.7165 9.03843 10.5335 11.2196C8.35416 13.4008 8.35416 16.9413 10.5353 19.128C12.7165 21.3147 16.2497 21.3129 18.4309 19.128Z"
    //                 fill="url(#spinGradient)">
    //                 <animateTransform attributeName="transform" type="rotate" values="0 30 30;360 30 30" dur="1.5s" repeatCount="indefinite"/>
    //                 <animate attributeName="opacity" values="1;0.6;1" dur="1.5s" repeatCount="indefinite"/>
    //                 </path>
    //             </g>
    //         </svg>