<svg xmlns="http://www.w3.org/2000/svg" width="38" height="37" viewBox="0 0 38 37" fill="none">
  <path fill-rule="evenodd" clip-rule="evenodd" d="M29.2712 17.2492C26.8689 17.2492 20.3848 17.2492 20.3848 17.2492V8.54543C20.3848 3.86676 24.4946 0.00488401 29.3016 0.00488401C34.1036 0.00241636 38 3.80014 38 8.48127C38 13.1624 34.0732 17.2492 29.2712 17.2492Z" fill="#FAC907"/>
  <path fill-rule="evenodd" clip-rule="evenodd" d="M17.6283 17.31C17.6283 17.31 11.1945 17.31 8.70093 17.31C3.89386 17.31 0 13.1625 0 8.47886C0 3.80019 3.89386 0 8.70093 0C13.5055 0.00246765 17.6283 3.79772 17.6283 8.47886V17.31Z" fill="#FAC907"/>
  <path fill-rule="evenodd" clip-rule="evenodd" d="M17.8099 28.5211C17.8099 33.2022 13.3887 36.9999 8.65007 36.9999C3.91148 36.9999 0.0683594 33.2047 0.0683594 28.5211C0.0683594 23.8375 3.84807 19.7563 8.58665 19.7563C11.0118 19.7563 17.8099 19.818 17.8099 19.818V28.5211Z" fill="#FAC907"/>
  <path fill-rule="evenodd" clip-rule="evenodd" d="M29.2936 36.9999C24.5068 36.9999 20.3823 33.18 20.3823 28.4964C20.3823 26.1694 20.4331 19.7476 20.4331 19.7476H29.2936C34.0779 19.7476 37.959 23.8375 37.959 28.5211C37.959 33.2022 34.0779 36.9999 29.2936 36.9999Z" fill="#FAC907"/>
</svg>