<svg xmlns="http://www.w3.org/2000/svg" width="24" height="24" viewBox="0 0 28 28" fill="none">
  <path fill-rule="evenodd" clip-rule="evenodd" d="M11.4779 21.5211C11.6787 21.8974 11.8797 22.2364 12.0718 22.5368C10.0304 22.0778 8.2589 20.9051 7.03311 19.2947C7.84211 18.8391 8.87827 18.3668 10.1239 18.0213C10.478 19.4098 10.9774 20.5827 11.4779 21.5211ZM13.0221 20.6976C12.5873 19.8825 12.1515 18.8644 11.8376 17.6582C12.5134 17.5579 13.2349 17.5 14.0001 17.5C14.7652 17.5 15.4867 17.5579 16.1624 17.6581C15.8485 18.8644 15.4127 19.8825 14.9779 20.6976C14.6293 21.3513 14.282 21.8731 14 22.255C13.718 21.8731 13.3707 21.3513 13.0221 20.6976ZM11.375 14C11.375 14.6814 11.4208 15.3282 11.5017 15.9389C12.2814 15.8193 13.115 15.75 14.0001 15.75C14.8851 15.75 15.7187 15.8192 16.4983 15.9389C16.5792 15.3281 16.625 14.6814 16.625 14C16.625 13.3186 16.5792 12.6719 16.4983 12.0611C15.7187 12.1807 14.8851 12.25 14.0001 12.25C13.115 12.25 12.2814 12.1807 11.5017 12.0611C11.4208 12.6718 11.375 13.3186 11.375 14ZM9.78469 11.7003C9.68306 12.4224 9.625 13.1896 9.625 14C9.625 14.8104 9.68306 15.5776 9.78469 16.2997C8.29894 16.6986 7.06862 17.2611 6.11711 17.8023C5.56148 16.6525 5.25 15.3627 5.25 14C5.25 12.6373 5.56148 11.3475 6.1171 10.1977C7.06851 10.7388 8.29885 11.3013 9.78469 11.7003ZM11.8376 10.3419C12.5134 10.4422 13.2349 10.5 14.0001 10.5C14.7652 10.5 15.4867 10.4422 16.1624 10.3419C15.8485 9.13564 15.4127 8.11759 14.9779 7.3024C14.6293 6.64876 14.282 6.12682 14 5.74504C13.718 6.12682 13.3707 6.64876 13.0221 7.30238C12.5873 8.11756 12.1515 9.13562 11.8376 10.3419ZM18.2153 11.7004C18.3169 12.4226 18.375 13.1897 18.375 14C18.375 14.8104 18.3169 15.5774 18.2153 16.2996C19.701 16.6986 20.9314 17.2611 21.8829 17.8023C22.4385 16.6524 22.75 15.3625 22.75 14C22.75 12.6374 22.4385 11.3475 21.8829 10.1978C20.9315 10.7389 19.7011 11.3014 18.2153 11.7004ZM20.9669 8.70541C20.1578 9.16103 19.1217 9.63322 17.8761 9.97883C17.522 8.59021 17.0226 7.4173 16.5221 6.47887C16.3213 6.10256 16.1203 5.76363 15.9282 5.46315C17.9697 5.92227 19.7412 7.09492 20.9669 8.70541ZM10.1239 9.97879C8.87835 9.63318 7.84222 9.16098 7.03312 8.70535C8.2589 7.0949 10.0304 5.92227 12.0717 5.46315C11.8797 5.76363 11.6787 6.10255 11.4779 6.47885C10.9774 7.41728 10.478 8.59018 10.1239 9.97879ZM17.8761 18.0211C17.522 19.4098 17.0226 20.5827 16.5221 21.5211C16.3213 21.8974 16.1203 22.2364 15.9282 22.5368C17.9697 22.0778 19.7412 20.905 20.967 19.2946C20.1579 18.839 19.1218 18.3668 17.8761 18.0211ZM14 24.5C19.799 24.5 24.5 19.799 24.5 14C24.5 8.20101 19.799 3.5 14 3.5C8.20101 3.5 3.5 8.20101 3.5 14C3.5 19.799 8.20101 24.5 14 24.5Z" fill="#9D96A4"/>
</svg>